<?xml version="1.0" encoding="utf-8"?>
<!-- Generator: Adobe Illustrator 19.0.0, SVG Export Plug-In . SVG Version: 6.00 Build 0)  -->
<svg version="1.1" id="Layer_1" xmlns="http://www.w3.org/2000/svg" xmlns:xlink="http://www.w3.org/1999/xlink" x="0px" y="0px"
	 viewBox="0 0 128.1 20.9" style="enable-background:new 0 0 128.1 20.9;" xml:space="preserve">
<style type="text/css">
	.st0{fill:#010101;}
</style>
<path class="st0" d="M7.3,1.3H6.8c-4.9,0-6.1,0.8-6.1,5.3H0.3V0.9h17v5.8h-0.4c0-4.6-1.1-5.3-6-5.3h-0.6V20H13v0.4H4.5V20h2.9V1.3z"
	/>
<path class="st0" d="M23.3,1.3h-2.8V0.9H29c3.2,0,6.7,0.7,6.7,4.9c0,3.4-3.9,4.3-5.9,4.5v0.1c3.2,0.3,4.9,1,5.3,4.6l0.4,3.4
	c0.2,1.6,1,1.8,1.4,1.8c0.5,0,0.9-0.2,1.1-0.3l0.2,0.4c-0.6,0.2-1.3,0.4-2.3,0.4c-3.4,0-3.6-1.8-4-5L31.8,14
	c-0.2-1.8-0.7-3.3-3.8-3.3h-1.8V20h2.8v0.4h-8.4V20h2.8V1.3z M26.1,10.2h1.4c3.3,0,5.2-1.1,5.2-4.4c0-2.2-0.8-4.5-4.7-4.5h-1.9V10.2
	z"/>
<path class="st0" d="M43.7,1.3h-2.5V0.9H49v0.4h-2.5V20H49v0.4h-7.9V20h2.5V1.3z"/>
<path class="st0" d="M55.5,1.3h-2.6V0.9h8.5c4.1,0,6.4,2.1,6.4,4.3c0,4.3-3.6,4.6-5.6,4.8v0.1c3,0.3,6.1,1.6,6.1,5.1
	c0,3.8-3.3,5.3-5.9,5.3h-9.5V20h2.6V1.3z M58.3,9.8h1.8c2.5,0,4.8-0.6,4.8-4.3c0-1.5-1.1-4.2-5.2-4.2h-1.4V9.8z M58.3,20h2.3
	c2.9,0,4.5-1.8,4.5-5.1c0-3.1-2.1-4.7-5.3-4.7h-1.5V20z"/>
<path class="st0" d="M73.6,1.3h-2.4V0.9h14.8l0.3,4.7h-0.4c0-3.2-2.1-4.3-5.1-4.3h-4.4v8.9h2.1c2.9,0,3.2-1.8,3.2-3.6h0.4v7.4h-0.4
	c0-2.1-0.3-3.4-3.2-3.4h-2.1V20h3.8c4.5,0,6.7-0.5,6.7-5.3h0.4v5.7H71.1V20h2.4V1.3z"/>
<path class="st0" d="M106.4,7.2h-0.4c0-3.2-2.7-6.3-6.1-6.3c-4.9,0-5.6,6.1-5.6,9.8s0.7,9.8,5.6,9.8c3.5,0,6.1-3.4,6.1-6.9h0.4v6.6
	h-0.4c0-0.6-0.3-1.4-0.9-1.4c-0.8,0-2.3,2.2-5.2,2.2c-4.7,0-8.8-4.5-8.8-10.2s4.1-10.2,8.8-10.2c2.8,0,4.1,2,5.1,2
	c0.8,0,1-0.5,1-1.2h0.4V7.2z"/>
<path class="st0" d="M119.7,14.1h-5.9l-1.1,3.5c-0.2,0.6-0.4,1.2-0.4,1.7c0,0.4,0.3,0.7,1.2,0.7h1.4v0.4h-5.7V20h0.9
	c0.9,0,1.2-0.1,1.8-1.6l6-17.9h0.3l6.8,19.6h2.3v0.4H119V20h2.7L119.7,14.1z M116.7,5.3L116.7,5.3l-2.8,8.4h5.6L116.7,5.3z"/>
<g>
	<path class="st0" d="M0,193.2h0.9v-0.3c0-4.3,0.9-5.1,5.8-5.1h0.3v18.2H4.2v0.9h9.1v-0.9h-2.9v-18.2h0.4c4.9,0,5.8,0.8,5.8,5.1v0.3
		h0.9v-6.3H0V193.2z"/>
	<path class="st0" d="M37.9,206c-0.3,0.1-0.6,0.2-1,0.2c-0.3,0-1,0-1.2-1.5l-0.4-3.4c-0.4-3.1-1.7-4.2-4.1-4.7
		c2.2-0.5,4.7-1.7,4.7-4.5c0-5.2-5.2-5.2-6.9-5.2h-8.8v0.9H23v18.2h-2.8v0.9h8.9v-0.9h-2.8v-8.9h1.6c3,0,3.4,1.5,3.6,3.1l0.2,1.7
		c0.4,3.1,0.6,5.1,4.2,5.1c1.1,0,1.9-0.2,2.4-0.4l0.3-0.1l-0.4-0.8L37.9,206z M26.4,187.9H28c4,0,4.4,2.4,4.4,4.2
		c0,2.8-1.5,4.1-4.9,4.1h-1.1V187.9z"/>
	<polygon class="st0" points="40.9,187.9 43.4,187.9 43.4,206.1 40.9,206.1 40.9,207 49.3,207 49.3,206.1 46.7,206.1 46.7,187.9 
		49.3,187.9 49.3,186.9 40.9,186.9 	"/>
	<path class="st0" d="M63.8,196.4c1.9-0.4,4.2-1.4,4.2-4.9c0-2.3-2.3-4.6-6.7-4.6h-8.7v0.9h2.6v18.2h-2.6v0.9h9.8
		c3.1,0,6.2-1.9,6.2-5.5C68.5,198.9,66.8,197.1,63.8,196.4z M64.9,201.3c0,3.1-1.5,4.8-4.2,4.8h-2.1v-9.2h1.3
		C63,196.8,64.9,198.4,64.9,201.3z M58.6,195.9v-8h1.2c3.9,0,4.9,2.6,4.9,3.9c0,3.4-1.8,4.1-4.5,4.1H58.6z"/>
	<path class="st0" d="M86.6,201.1c0,4.5-2,5-6.4,5h-3.6v-8.8h1.8c2.7,0,2.9,1,2.9,3.1v0.3h0.9v-7.9h-0.9v0.3c0,1.7-0.2,3.3-2.9,3.3
		h-1.8v-8.4h4.1c3.2,0,4.8,1.3,4.8,4v0.3h1l-0.4-5.2H70.9v0.9h2.4v18.2h-2.4v0.9h16.7v-6.2h-0.9V201.1z"/>
	<path class="st0" d="M105.7,187.6c0,0.8-0.4,0.9-0.8,0.9c-0.3,0-0.7-0.3-1.2-0.6c-0.9-0.6-2.1-1.4-3.9-1.4c-4.9,0-9,4.8-9,10.5
		s4.1,10.5,9,10.5c1.9,0,3.3-1,4.2-1.6c0.4-0.3,0.8-0.6,1-0.6c0.5,0,0.7,0.7,0.7,1.1v0.3h0.9v-7.1h-0.9v0.3c0,3.2-2.4,6.7-5.9,6.7
		c-4.4,0-5.4-5.2-5.4-9.5s0.9-9.5,5.4-9.5c3.1,0,5.9,2.8,5.9,6.1v0.3h0.9v-6.4h-0.9V187.6z"/>
	<path class="st0" d="M125,206.1l-6.8-19.6h-0.7l-6,18.1c-0.5,1.5-0.8,1.5-1.5,1.5h-1.1v0.9h6.2v-0.9h-1.7c-0.4,0-1-0.1-1-0.4
		c0-0.4,0.2-1.1,0.4-1.6l1.1-3.3h5.6l1.8,5.4h-2.6v0.9h8.6v-0.9H125z M114.3,199.7l2.4-7.5l2.5,7.5H114.3z"/>
</g>
</svg>
